# xmcd CD database file
#
# Track frame offsets:
#	150
#	15011
#	30879
#	42274
#	56951
#	68466
#	91411
#	106071
#	117804
#	127209
#	143919
#	158654
#	177166
#	187738
#	198045
#	210633
#	223383
#	236198
#	252398
#	263910
#	275103
#
# Disc length: 3956 seconds
#
# Revision: 3
# Processed by: cddbd v1.5.2PL0 Copyright (c) Steve Scherf et al.
# Submitted via: CDex 1.51
#
DISCID=280f7215
DTITLE=Various Artist - Best of SA Country CD1
DYEAR=2006
DGENRE=Country
TTITLE0=Heart - Gene Rockwell
TTITLE1=Dont Fly To High - Joanna Field
TTITLE2=I Wanna Live - Tommy Oliver
TTITLE3=Sad Songs - Gary Bryden
TTITLE4=I Dont Wanna Play House - Barbara Ray
TTITLE5=Teddy Bear - Tommy Dell
TTITLE6=Patches - Jody Wayne
TTITLE7=Green Eyed Angel - Bobby Angel
TTITLE8=Mocking Bird Song - Charles Jacobie
TTITLE9=Ride Safe - Matt Hurter
TTITLE10=Sweet Mama - Peter Vee
TTITLE11=That Silver Haired Daddy Of Mine - Ken Mullan
TTITLE12=Blue Winter - Maureen Moore
TTITLE13=After The Fire Is Gone - Lance James And Barbara Ray
TTITLE14=I Fall To Pieces - Joanna Field And Gene Rockwell
TTITLE15=Hello Operator - Billy Forest
TTITLE16=God Made Love - Sally Vaughn
TTITLE17=Baby Blue Eyes - Ray Mckenzie
TTITLE18=Blue Eyes Crying In the Rain - Maria Tyl
TTITLE19=Darlin Its Wonderful - Virginia Lee
TTITLE20=Guardian Angel - Tommy Dell And C Jackson
EXTD=YEAR: 2006
EXTT0=
EXTT1=
EXTT2=
EXTT3=
EXTT4=
EXTT5=
EXTT6=
EXTT7=
EXTT8=
EXTT9=
EXTT10=
EXTT11=
EXTT12=
EXTT13=
EXTT14=
EXTT15=
EXTT16=
EXTT17=
EXTT18=
EXTT19=
EXTT20=
PLAYORDER=
